<svg width="24" height="24" viewBox="0 0 24 24" fill="none" xmlns="http://www.w3.org/2000/svg">
<g clip-path="url(#clip0_24_54)">
<path fill-rule="evenodd" clip-rule="evenodd" d="M7.5 19C8.32843 19 9 19.6716 9 20.5C9 21.3284 8.32843 22 7.5 22C6.67157 22 6 21.3284 6 20.5C6 19.6716 6.67157 19 7.5 19ZM17.5 19C18.3284 19 19 19.6716 19 20.5C19 21.3284 18.3284 22 17.5 22C16.6716 22 16 21.3284 16 20.5C16 19.6716 16.6716 19 17.5 19ZM3.13776 2C4.71168 2 6.018 3.21634 6.13014 4.78626L6.1454 5H19.8018C21.0496 5 21.9927 6.13009 21.7695 7.35777L20.1332 16.3578C19.9603 17.3088 19.132 18 18.1654 18H6.93112C5.88184 18 5.01096 17.1891 4.9362 16.1425L4.13522 4.92875C4.09784 4.40545 3.6624 4 3.13776 4H3C2.44772 4 2 3.55228 2 3C2 2.44772 2.44772 2 3 2H3.13776ZM19.8018 7H6.28826L6.93112 16H18.1654L19.8018 7Z" fill="white"/>
</g>
<defs>
<clipPath id="clip0_24_54">
<rect width="24" height="24" fill="white"/>
</clipPath>
</defs>
</svg>
