<svg width="145" height="116" viewBox="0 0 145 116" fill="none" xmlns="http://www.w3.org/2000/svg">
<path d="M107.762 36.2737C108.454 35.4753 108.791 34.4462 108.484 33.3965L99.398 2.49531C98.8708 0.709217 96.8241 -0.36115 94.8369 0.111934L36.7782 13.8474C34.7975 14.3176 33.6012 16.1599 34.1219 17.943L43.208 48.8412C43.7286 50.6243 45.7851 51.6948 47.7724 51.2276L68.2876 46.3721V56.7188C68.2876 62.5058 78.9753 65.5339 89.541 65.5339C100.1 65.5339 110.801 62.5058 110.801 56.719V41.0287C110.801 39.145 109.651 37.56 107.762 36.2737ZM101.188 25.6224L102.137 28.8397L90.5954 31.5749L89.6529 28.3518L101.188 25.6224ZM94.4908 5.26609L96.2935 11.3932L78.2632 15.6631L76.4605 9.53605L94.4908 5.26609ZM86.4001 29.1206L87.3229 32.2668C83.0552 32.4383 78.9027 33.1066 75.5675 34.248L74.8623 31.8587L86.4001 29.1206ZM46.22 42.0724L45.2775 38.8611L56.8154 36.1228L57.7645 39.3518L46.22 42.0724ZM60.0683 35.357L71.5996 32.6217L72.4729 35.5699C72.1927 35.7237 71.9292 35.8833 71.672 36.046L61.0108 38.5713L60.0683 35.357ZM106.952 56.4644C106.952 59.8384 99.1609 62.5708 89.541 62.5708C79.9311 62.5708 72.1336 59.8355 72.1336 56.4644V52.6647C72.1336 52.5375 72.2159 52.4222 72.239 52.301C72.7893 55.5006 80.2835 58.0376 89.541 58.0376C98.8017 58.0376 106.299 55.5004 106.846 52.301C106.869 52.4222 106.952 52.5376 106.952 52.6647V56.4644ZM106.952 48.989C106.952 52.3601 99.1609 55.0923 89.541 55.0923C79.9311 55.0923 72.1336 52.3601 72.1336 48.989V45.1892C72.1336 45.065 72.2159 44.9467 72.239 44.8255C72.7893 48.0221 80.2835 50.5652 89.541 50.5652C98.8017 50.5652 106.299 48.0221 106.846 44.8255C106.869 44.9467 106.952 45.065 106.952 45.1892V48.989ZM89.5409 47.129C79.9309 47.129 72.1334 44.3967 72.1334 41.0285C72.1334 37.6605 79.9308 34.9282 89.5409 34.9282C99.1608 34.9282 106.952 37.6605 106.952 41.0285C106.952 44.3967 99.1608 47.129 89.5409 47.129Z" fill="#8F8EBF"/>
<path d="M0.884943 115.534V105.352H4.90199C5.67424 105.352 6.33215 105.5 6.87571 105.795C7.41927 106.086 7.83357 106.492 8.11861 107.013C8.40696 107.53 8.55114 108.126 8.55114 108.802C8.55114 109.478 8.4053 110.075 8.11364 110.592C7.82197 111.109 7.39938 111.512 6.84588 111.8C6.29569 112.089 5.6295 112.233 4.8473 112.233H2.28693V110.508H4.49929C4.91359 110.508 5.25497 110.436 5.52344 110.294C5.79522 110.148 5.9974 109.947 6.12997 109.692C6.26586 109.434 6.33381 109.137 6.33381 108.802C6.33381 108.464 6.26586 108.169 6.12997 107.917C5.9974 107.662 5.79522 107.465 5.52344 107.326C5.25166 107.183 4.90696 107.112 4.48935 107.112H3.03764V115.534H0.884943ZM11.8821 115.678C11.3949 115.678 10.9607 115.594 10.5795 115.424C10.1984 115.252 9.89678 114.999 9.67472 114.664C9.45597 114.326 9.34659 113.905 9.34659 113.401C9.34659 112.977 9.42448 112.621 9.58026 112.332C9.73603 112.044 9.94815 111.812 10.2166 111.636C10.4851 111.46 10.79 111.328 11.1314 111.238C11.4761 111.149 11.8374 111.086 12.2152 111.049C12.6593 111.003 13.0173 110.96 13.2891 110.92C13.5608 110.877 13.758 110.814 13.8807 110.731C14.0033 110.648 14.0646 110.526 14.0646 110.363V110.334C14.0646 110.019 13.9652 109.775 13.7663 109.603C13.5708 109.43 13.2924 109.344 12.9311 109.344C12.55 109.344 12.2467 109.429 12.0213 109.598C11.7959 109.764 11.6468 109.972 11.5739 110.224L9.61506 110.065C9.71449 109.601 9.91004 109.2 10.2017 108.862C10.4934 108.521 10.8696 108.259 11.3303 108.076C11.7943 107.891 12.3312 107.798 12.9411 107.798C13.3653 107.798 13.7713 107.848 14.1591 107.947C14.5502 108.047 14.8965 108.201 15.1982 108.41C15.5031 108.618 15.7434 108.887 15.919 109.215C16.0947 109.54 16.1825 109.929 16.1825 110.383V115.534H14.174V114.475H14.1143C13.9917 114.714 13.8277 114.924 13.6222 115.106C13.4167 115.285 13.1697 115.426 12.8814 115.529C12.593 115.628 12.2599 115.678 11.8821 115.678ZM12.4886 114.216C12.8002 114.216 13.0753 114.155 13.3139 114.032C13.5526 113.907 13.7398 113.737 13.8757 113.525C14.0116 113.313 14.0795 113.073 14.0795 112.804V111.994C14.0133 112.037 13.9221 112.077 13.8061 112.113C13.6934 112.147 13.5658 112.178 13.4233 112.208C13.2808 112.234 13.1383 112.259 12.9957 112.282C12.8532 112.302 12.724 112.321 12.608 112.337C12.3594 112.374 12.1423 112.432 11.9567 112.511C11.7711 112.591 11.6269 112.698 11.5241 112.834C11.4214 112.967 11.37 113.133 11.37 113.331C11.37 113.62 11.4744 113.84 11.6832 113.993C11.8954 114.142 12.1638 114.216 12.4886 114.216ZM17.8256 115.534V107.898H19.9435V115.534H17.8256ZM18.8896 106.913C18.5747 106.913 18.3046 106.809 18.0792 106.6C17.8571 106.388 17.7461 106.134 17.7461 105.839C17.7461 105.548 17.8571 105.297 18.0792 105.089C18.3046 104.876 18.5747 104.77 18.8896 104.77C19.2044 104.77 19.4729 104.876 19.695 105.089C19.9203 105.297 20.033 105.548 20.033 105.839C20.033 106.134 19.9203 106.388 19.695 106.6C19.4729 106.809 19.2044 106.913 18.8896 106.913ZM25.1202 115.683C24.3347 115.683 23.6586 115.524 23.0918 115.206C22.5283 114.884 22.0942 114.43 21.7892 113.844C21.4843 113.254 21.3319 112.556 21.3319 111.75C21.3319 110.965 21.4843 110.276 21.7892 109.682C22.0942 109.089 22.5234 108.627 23.0769 108.295C23.6337 107.964 24.2866 107.798 25.0357 107.798C25.5395 107.798 26.0085 107.879 26.4426 108.042C26.8801 108.201 27.2613 108.441 27.5861 108.763C27.9142 109.084 28.1694 109.488 28.3517 109.976C28.534 110.46 28.6252 111.026 28.6252 111.676V112.258H22.177V110.945H26.6316C26.6316 110.64 26.5653 110.37 26.4327 110.135C26.3001 109.899 26.1162 109.715 25.8809 109.583C25.6489 109.447 25.3787 109.379 25.0705 109.379C24.749 109.379 24.464 109.454 24.2154 109.603C23.9701 109.749 23.7779 109.946 23.6387 110.194C23.4995 110.44 23.4282 110.713 23.4249 111.015V112.263C23.4249 112.64 23.4945 112.967 23.6337 113.242C23.7762 113.517 23.9767 113.729 24.2353 113.878C24.4938 114.027 24.8004 114.102 25.155 114.102C25.3903 114.102 25.6058 114.069 25.8013 114.003C25.9969 113.936 26.1642 113.837 26.3034 113.704C26.4426 113.572 26.5487 113.409 26.6216 113.217L28.5804 113.346C28.481 113.817 28.2772 114.228 27.9689 114.579C27.664 114.927 27.2696 115.199 26.7857 115.395C26.3051 115.587 25.7499 115.683 25.1202 115.683ZM30.0073 115.534V107.898H32.0257V109.245H32.1152C32.2743 108.797 32.5395 108.444 32.9107 108.186C33.2819 107.927 33.726 107.798 34.2431 107.798C34.7667 107.798 35.2125 107.929 35.5804 108.191C35.9483 108.449 36.1936 108.801 36.3162 109.245H36.3958C36.5516 108.807 36.8333 108.458 37.2409 108.196C37.6519 107.931 38.1375 107.798 38.6976 107.798C39.4102 107.798 39.9886 108.025 40.4327 108.479C40.8801 108.93 41.1039 109.57 41.1039 110.398V115.534H38.9909V110.816C38.9909 110.392 38.8783 110.073 38.6529 109.861C38.4275 109.649 38.1458 109.543 37.8077 109.543C37.4232 109.543 37.1233 109.666 36.9078 109.911C36.6924 110.153 36.5847 110.473 36.5847 110.871V115.534H34.5314V110.771C34.5314 110.397 34.4237 110.098 34.2083 109.876C33.9962 109.654 33.7161 109.543 33.3681 109.543C33.1328 109.543 32.9206 109.603 32.7317 109.722C32.5461 109.838 32.3986 110.002 32.2892 110.214C32.1799 110.423 32.1252 110.668 32.1252 110.95V115.534H30.0073ZM46.2569 115.683C45.4714 115.683 44.7953 115.524 44.2285 115.206C43.6651 114.884 43.2309 114.43 42.926 113.844C42.621 113.254 42.4686 112.556 42.4686 111.75C42.4686 110.965 42.621 110.276 42.926 109.682C43.2309 109.089 43.6601 108.627 44.2136 108.295C44.7704 107.964 45.4234 107.798 46.1724 107.798C46.6762 107.798 47.1452 107.879 47.5794 108.042C48.0169 108.201 48.398 108.441 48.7228 108.763C49.051 109.084 49.3062 109.488 49.4885 109.976C49.6708 110.46 49.7619 111.026 49.7619 111.676V112.258H43.3137V110.945H47.7683C47.7683 110.64 47.702 110.37 47.5694 110.135C47.4368 109.899 47.2529 109.715 47.0176 109.583C46.7856 109.447 46.5154 109.379 46.2072 109.379C45.8857 109.379 45.6007 109.454 45.3521 109.603C45.1068 109.749 44.9146 109.946 44.7754 110.194C44.6362 110.44 44.5649 110.713 44.5616 111.015V112.263C44.5616 112.64 44.6312 112.967 44.7704 113.242C44.9129 113.517 45.1135 113.729 45.372 113.878C45.6305 114.027 45.9371 114.102 46.2917 114.102C46.527 114.102 46.7425 114.069 46.938 114.003C47.1336 113.936 47.301 113.837 47.4402 113.704C47.5794 113.572 47.6854 113.409 47.7583 113.217L49.7172 113.346C49.6177 113.817 49.4139 114.228 49.1056 114.579C48.8007 114.927 48.4063 115.199 47.9224 115.395C47.4418 115.587 46.8867 115.683 46.2569 115.683ZM53.2619 111.119V115.534H51.144V107.898H53.1625V109.245H53.252C53.421 108.801 53.7044 108.449 54.1021 108.191C54.4998 107.929 54.9821 107.798 55.5488 107.798C56.0791 107.798 56.5415 107.914 56.9359 108.146C57.3303 108.378 57.6369 108.71 57.8556 109.14C58.0744 109.568 58.1838 110.078 58.1838 110.672V115.534H56.0659V111.049C56.0692 110.582 55.9499 110.218 55.7079 109.956C55.466 109.691 55.1329 109.558 54.7086 109.558C54.4236 109.558 54.1717 109.619 53.9529 109.742C53.7375 109.865 53.5685 110.044 53.4458 110.279C53.3265 110.511 53.2652 110.791 53.2619 111.119ZM63.9148 107.898V109.488H59.3161V107.898H63.9148ZM60.3601 106.068H62.478V113.187C62.478 113.383 62.5078 113.535 62.5675 113.645C62.6271 113.751 62.71 113.825 62.8161 113.868C62.9254 113.911 63.0514 113.933 63.1939 113.933C63.2933 113.933 63.3928 113.925 63.4922 113.908C63.5916 113.888 63.6679 113.873 63.7209 113.863L64.054 115.439C63.9479 115.473 63.7988 115.511 63.6065 115.554C63.4143 115.6 63.1806 115.628 62.9055 115.638C62.3951 115.658 61.9477 115.59 61.5632 115.434C61.1821 115.279 60.8854 115.037 60.6733 114.709C60.4612 114.38 60.3568 113.966 60.3601 113.466V106.068ZM74.8883 110.075L72.9494 110.194C72.9163 110.029 72.845 109.88 72.7356 109.747C72.6262 109.611 72.4821 109.503 72.3031 109.424C72.1274 109.341 71.917 109.299 71.6717 109.299C71.3436 109.299 71.0668 109.369 70.8414 109.508C70.6161 109.644 70.5034 109.826 70.5034 110.055C70.5034 110.237 70.5763 110.392 70.7221 110.518C70.868 110.643 71.1182 110.745 71.4728 110.821L72.8549 111.099C73.5974 111.252 74.1509 111.497 74.5154 111.835C74.88 112.173 75.0623 112.617 75.0623 113.167C75.0623 113.668 74.9148 114.107 74.6199 114.485C74.3282 114.863 73.9271 115.158 73.4167 115.37C72.9096 115.579 72.3246 115.683 71.6618 115.683C70.6509 115.683 69.8455 115.473 69.2456 115.052C68.649 114.627 68.2993 114.051 68.1966 113.322L70.2797 113.212C70.3426 113.52 70.4951 113.756 70.737 113.918C70.979 114.077 71.2889 114.157 71.6667 114.157C72.0379 114.157 72.3362 114.085 72.5616 113.943C72.7903 113.797 72.9063 113.61 72.9096 113.381C72.9063 113.189 72.8251 113.032 72.666 112.909C72.5069 112.783 72.2617 112.687 71.9302 112.621L70.6078 112.357C69.862 112.208 69.3069 111.949 68.9423 111.581C68.581 111.214 68.4004 110.745 68.4004 110.174C68.4004 109.684 68.533 109.261 68.7981 108.907C69.0666 108.552 69.4428 108.279 69.9267 108.086C70.4139 107.894 70.984 107.798 71.6369 107.798C72.6014 107.798 73.3604 108.002 73.9139 108.41C74.4707 108.817 74.7955 109.372 74.8883 110.075ZM79.8761 115.683C79.0906 115.683 78.4144 115.524 77.8477 115.206C77.2842 114.884 76.85 114.43 76.5451 113.844C76.2402 113.254 76.0877 112.556 76.0877 111.75C76.0877 110.965 76.2402 110.276 76.5451 109.682C76.85 109.089 77.2792 108.627 77.8327 108.295C78.3896 107.964 79.0425 107.798 79.7915 107.798C80.2953 107.798 80.7643 107.879 81.1985 108.042C81.636 108.201 82.0172 108.441 82.342 108.763C82.6701 109.084 82.9253 109.488 83.1076 109.976C83.2899 110.46 83.381 111.026 83.381 111.676V112.258H76.9329V110.945H81.3874C81.3874 110.64 81.3211 110.37 81.1886 110.135C81.056 109.899 80.872 109.715 80.6367 109.583C80.4047 109.447 80.1346 109.379 79.8263 109.379C79.5049 109.379 79.2198 109.454 78.9712 109.603C78.726 109.749 78.5337 109.946 78.3945 110.194C78.2553 110.44 78.1841 110.713 78.1808 111.015V112.263C78.1808 112.64 78.2504 112.967 78.3896 113.242C78.5321 113.517 78.7326 113.729 78.9911 113.878C79.2496 114.027 79.5562 114.102 79.9109 114.102C80.1462 114.102 80.3616 114.069 80.5572 114.003C80.7527 113.936 80.9201 113.837 81.0593 113.704C81.1985 113.572 81.3046 113.409 81.3775 113.217L83.3363 113.346C83.2369 113.817 83.033 114.228 82.7248 114.579C82.4199 114.927 82.0254 115.199 81.5415 115.395C81.061 115.587 80.5058 115.683 79.8761 115.683ZM78.9812 106.913L80.0352 104.651H81.994L80.4776 106.913H78.9812ZM88.2134 115.683C87.4312 115.683 86.7584 115.517 86.195 115.186C85.6348 114.851 85.204 114.387 84.9023 113.794C84.604 113.201 84.4549 112.518 84.4549 111.746C84.4549 110.963 84.6057 110.277 84.9073 109.687C85.2122 109.094 85.6448 108.632 86.2049 108.3C86.765 107.965 87.4312 107.798 88.2035 107.798C88.8697 107.798 89.453 107.919 89.9535 108.161C90.454 108.403 90.85 108.743 91.1417 109.18C91.4334 109.618 91.5941 110.131 91.6239 110.721H89.6254C89.569 110.34 89.4199 110.034 89.1779 109.802C88.9393 109.566 88.6261 109.449 88.2383 109.449C87.9102 109.449 87.6235 109.538 87.3782 109.717C87.1362 109.893 86.9473 110.15 86.8114 110.488C86.6755 110.826 86.6076 111.235 86.6076 111.716C86.6076 112.203 86.6739 112.617 86.8065 112.959C86.9424 113.3 87.1329 113.56 87.3782 113.739C87.6235 113.918 87.9102 114.008 88.2383 114.008C88.4802 114.008 88.6973 113.958 88.8896 113.858C89.0851 113.759 89.2459 113.615 89.3718 113.426C89.5011 113.234 89.5856 113.003 89.6254 112.735H91.6239C91.5908 113.318 91.4317 113.832 91.1467 114.276C90.8649 114.717 90.4755 115.062 89.9783 115.31C89.4812 115.559 88.8929 115.683 88.2134 115.683ZM97.877 112.282V107.898H99.9949V115.534H97.9615V114.147H97.8819C97.7096 114.594 97.4229 114.954 97.0218 115.226C96.6241 115.497 96.1386 115.633 95.5652 115.633C95.0547 115.633 94.6056 115.517 94.2179 115.285C93.8301 115.053 93.5268 114.724 93.3081 114.296C93.0926 113.868 92.9833 113.356 92.9799 112.76V107.898H95.0978V112.382C95.1011 112.833 95.2221 113.189 95.4608 113.451C95.6994 113.713 96.0192 113.844 96.4203 113.844C96.6755 113.844 96.9141 113.786 97.1362 113.67C97.3583 113.55 97.5372 113.375 97.6731 113.143C97.8123 112.911 97.8803 112.624 97.877 112.282ZM101.689 115.534V107.898H103.742V109.23H103.822C103.961 108.756 104.195 108.398 104.523 108.156C104.851 107.911 105.229 107.788 105.656 107.788C105.762 107.788 105.877 107.795 105.999 107.808C106.122 107.821 106.23 107.84 106.322 107.863V109.742C106.223 109.712 106.085 109.686 105.91 109.662C105.734 109.639 105.573 109.628 105.428 109.628C105.116 109.628 104.838 109.696 104.592 109.831C104.35 109.964 104.158 110.15 104.016 110.388C103.876 110.627 103.807 110.902 103.807 111.214V115.534H101.689ZM107.417 115.534V107.898H109.535V115.534H107.417ZM108.481 106.913C108.166 106.913 107.896 106.809 107.671 106.6C107.449 106.388 107.338 106.134 107.338 105.839C107.338 105.548 107.449 105.297 107.671 105.089C107.896 104.876 108.166 104.77 108.481 104.77C108.796 104.77 109.065 104.876 109.287 105.089C109.512 105.297 109.625 105.548 109.625 105.839C109.625 106.134 109.512 106.388 109.287 106.6C109.065 106.809 108.796 106.913 108.481 106.913ZM117.586 110.075L115.647 110.194C115.614 110.029 115.542 109.88 115.433 109.747C115.324 109.611 115.179 109.503 115 109.424C114.825 109.341 114.614 109.299 114.369 109.299C114.041 109.299 113.764 109.369 113.539 109.508C113.313 109.644 113.201 109.826 113.201 110.055C113.201 110.237 113.274 110.392 113.419 110.518C113.565 110.643 113.815 110.745 114.17 110.821L115.552 111.099C116.295 111.252 116.848 111.497 117.213 111.835C117.577 112.173 117.76 112.617 117.76 113.167C117.76 113.668 117.612 114.107 117.317 114.485C117.025 114.863 116.624 115.158 116.114 115.37C115.607 115.579 115.022 115.683 114.359 115.683C113.348 115.683 112.543 115.473 111.943 115.052C111.346 114.627 110.997 114.051 110.894 113.322L112.977 113.212C113.04 113.52 113.192 113.756 113.434 113.918C113.676 114.077 113.986 114.157 114.364 114.157C114.735 114.157 115.033 114.085 115.259 113.943C115.488 113.797 115.604 113.61 115.607 113.381C115.604 113.189 115.522 113.032 115.363 112.909C115.204 112.783 114.959 112.687 114.627 112.621L113.305 112.357C112.559 112.208 112.004 111.949 111.64 111.581C111.278 111.214 111.098 110.745 111.098 110.174C111.098 109.684 111.23 109.261 111.495 108.907C111.764 108.552 112.14 108.279 112.624 108.086C113.111 107.894 113.681 107.798 114.334 107.798C115.299 107.798 116.058 108.002 116.611 108.41C117.168 108.817 117.493 109.372 117.586 110.075ZM122.573 115.683C121.788 115.683 121.112 115.524 120.545 115.206C119.981 114.884 119.547 114.43 119.242 113.844C118.937 113.254 118.785 112.556 118.785 111.75C118.785 110.965 118.937 110.276 119.242 109.682C119.547 109.089 119.977 108.627 120.53 108.295C121.087 107.964 121.74 107.798 122.489 107.798C122.993 107.798 123.462 107.879 123.896 108.042C124.333 108.201 124.714 108.441 125.039 108.763C125.367 109.084 125.623 109.488 125.805 109.976C125.987 110.46 126.078 111.026 126.078 111.676V112.258H119.63V110.945H124.085C124.085 110.64 124.018 110.37 123.886 110.135C123.753 109.899 123.569 109.715 123.334 109.583C123.102 109.447 122.832 109.379 122.524 109.379C122.202 109.379 121.917 109.454 121.669 109.603C121.423 109.749 121.231 109.946 121.092 110.194C120.953 110.44 120.881 110.713 120.878 111.015V112.263C120.878 112.64 120.948 112.967 121.087 113.242C121.229 113.517 121.43 113.729 121.688 113.878C121.947 114.027 122.253 114.102 122.608 114.102C122.843 114.102 123.059 114.069 123.254 114.003C123.45 113.936 123.617 113.837 123.757 113.704C123.896 113.572 124.002 113.409 124.075 113.217L126.034 113.346C125.934 113.817 125.73 114.228 125.422 114.579C125.117 114.927 124.723 115.199 124.239 115.395C123.758 115.587 123.203 115.683 122.573 115.683ZM121.678 106.913L122.732 104.651H124.691L123.175 106.913H121.678ZM133.814 110.075L131.875 110.194C131.842 110.029 131.771 109.88 131.661 109.747C131.552 109.611 131.408 109.503 131.229 109.424C131.053 109.341 130.843 109.299 130.597 109.299C130.269 109.299 129.993 109.369 129.767 109.508C129.542 109.644 129.429 109.826 129.429 110.055C129.429 110.237 129.502 110.392 129.648 110.518C129.794 110.643 130.044 110.745 130.399 110.821L131.781 111.099C132.523 111.252 133.077 111.497 133.441 111.835C133.806 112.173 133.988 112.617 133.988 113.167C133.988 113.668 133.841 114.107 133.546 114.485C133.254 114.863 132.853 115.158 132.343 115.37C131.835 115.579 131.25 115.683 130.588 115.683C129.577 115.683 128.771 115.473 128.171 115.052C127.575 114.627 127.225 114.051 127.122 113.322L129.205 113.212C129.268 113.52 129.421 113.756 129.663 113.918C129.905 114.077 130.215 114.157 130.593 114.157C130.964 114.157 131.262 114.085 131.487 113.943C131.716 113.797 131.832 113.61 131.835 113.381C131.832 113.189 131.751 113.032 131.592 112.909C131.433 112.783 131.187 112.687 130.856 112.621L129.534 112.357C128.788 112.208 128.233 111.949 127.868 111.581C127.507 111.214 127.326 110.745 127.326 110.174C127.326 109.684 127.459 109.261 127.724 108.907C127.992 108.552 128.369 108.279 128.852 108.086C129.34 107.894 129.91 107.798 130.563 107.798C131.527 107.798 132.286 108.002 132.84 108.41C133.396 108.817 133.721 109.372 133.814 110.075Z" fill="black"/>
</svg>
