<svg width="114" height="129" viewBox="0 0 114 129" fill="none" xmlns="http://www.w3.org/2000/svg">
<path d="M75.9901 15.8333C80.5465 15.8333 84.2401 19.3777 84.2401 23.75V27.7083H90.5076C93.0135 27.7083 95.3841 28.8015 96.9496 30.6795L103.057 38.0055C104.227 39.4092 104.865 41.1532 104.865 42.9511V59.375C104.865 63.7474 101.172 67.2917 96.615 67.2917C96.615 73.8502 91.0748 79.1667 84.2401 79.1667C77.4053 79.1667 71.8651 73.8502 71.8651 67.2917H55.3651C55.3651 73.8502 49.8246 79.1667 42.9901 79.1667C36.1555 79.1667 30.6151 73.8502 30.6151 67.2917C26.0587 67.2917 22.3651 63.7474 22.3651 59.375V23.75C22.3651 19.3777 26.0587 15.8333 30.6151 15.8333H75.9901ZM42.9901 63.3333C40.7119 63.3333 38.8651 65.1055 38.8651 67.2917C38.8651 69.4779 40.7119 71.25 42.9901 71.25C45.2682 71.25 47.1151 69.4779 47.1151 67.2917C47.1151 65.1055 45.2682 63.3333 42.9901 63.3333ZM84.2401 63.3333C81.9618 63.3333 80.1151 65.1055 80.1151 67.2917C80.1151 69.4779 81.9618 71.25 84.2401 71.25C86.5183 71.25 88.3651 69.4779 88.3651 67.2917C88.3651 65.1055 86.5183 63.3333 84.2401 63.3333ZM75.9901 23.75H30.6151V59.375H33.7661C36.032 56.9458 39.325 55.4167 42.9901 55.4167C46.3732 55.4167 49.4393 56.7196 51.6732 58.8307L52.214 59.375H75.0161L75.4896 58.8948L75.9901 58.4404V23.75ZM90.5076 35.625H84.2401V55.4167C87.6232 55.4167 90.6893 56.7196 92.9231 58.8307L93.464 59.375H96.615V42.9511L90.5076 35.625Z" fill="#6969B7"/>
<path d="M0 126V115.818H2.1527V124.225H6.51776V126H0Z" fill="black"/>
<path d="M7.90359 126V118.364H10.0215V126H7.90359ZM8.96751 117.379C8.65264 117.379 8.38252 117.275 8.15714 117.066C7.93507 116.854 7.82404 116.6 7.82404 116.305C7.82404 116.014 7.93507 115.763 8.15714 115.555C8.38252 115.343 8.65264 115.237 8.96751 115.237C9.28237 115.237 9.55084 115.343 9.7729 115.555C9.99828 115.763 10.111 116.014 10.111 116.305C10.111 116.6 9.99828 116.854 9.7729 117.066C9.55084 117.275 9.28237 117.379 8.96751 117.379Z" fill="black"/>
<path d="M18.8374 118.364L16.1676 126H13.7812L11.1115 118.364H13.3487L14.9347 123.827H15.0142L16.5952 118.364H18.8374Z" fill="black"/>
<path d="M19.9212 126V118.364H21.9744V119.696H22.054C22.1932 119.222 22.4268 118.864 22.755 118.622C23.0831 118.377 23.4609 118.254 23.8885 118.254C23.9946 118.254 24.1089 118.261 24.2315 118.274C24.3542 118.287 24.4619 118.306 24.5547 118.329V120.208C24.4553 120.178 24.3177 120.152 24.142 120.129C23.9664 120.105 23.8056 120.094 23.6598 120.094C23.3482 120.094 23.0698 120.162 22.8246 120.298C22.5826 120.43 22.3904 120.616 22.2479 120.854C22.1087 121.093 22.0391 121.368 22.0391 121.68V126H19.9212Z" fill="black"/>
<path d="M27.6085 126.144C27.1213 126.144 26.6871 126.06 26.3059 125.891C25.9248 125.718 25.6232 125.465 25.4011 125.13C25.1824 124.792 25.073 124.371 25.073 123.867C25.073 123.443 25.1509 123.087 25.3066 122.798C25.4624 122.51 25.6745 122.278 25.943 122.102C26.2115 121.927 26.5164 121.794 26.8578 121.705C27.2025 121.615 27.5637 121.552 27.9416 121.516C28.3857 121.469 28.7437 121.426 29.0154 121.386C29.2872 121.343 29.4844 121.28 29.6071 121.197C29.7297 121.115 29.791 120.992 29.791 120.83V120.8C29.791 120.485 29.6916 120.241 29.4927 120.069C29.2972 119.897 29.0188 119.81 28.6575 119.81C28.2763 119.81 27.9731 119.895 27.7477 120.064C27.5223 120.23 27.3732 120.438 27.3002 120.69L25.3414 120.531C25.4409 120.067 25.6364 119.666 25.9281 119.328C26.2198 118.987 26.5959 118.725 27.0566 118.543C27.5207 118.357 28.0576 118.264 28.6674 118.264C29.0917 118.264 29.4977 118.314 29.8855 118.413C30.2766 118.513 30.6229 118.667 30.9245 118.876C31.2295 119.085 31.4698 119.353 31.6454 119.681C31.8211 120.006 31.9089 120.395 31.9089 120.849V126H29.9004V124.941H29.8407C29.7181 125.18 29.554 125.39 29.3485 125.572C29.1431 125.751 28.8961 125.892 28.6078 125.995C28.3194 126.094 27.9863 126.144 27.6085 126.144ZM28.215 124.683C28.5266 124.683 28.8017 124.621 29.0403 124.499C29.2789 124.373 29.4662 124.204 29.6021 123.991C29.738 123.779 29.8059 123.539 29.8059 123.271V122.46C29.7396 122.503 29.6485 122.543 29.5325 122.58C29.4198 122.613 29.2922 122.644 29.1497 122.674C29.0072 122.701 28.8646 122.725 28.7221 122.749C28.5796 122.768 28.4503 122.787 28.3343 122.803C28.0858 122.84 27.8687 122.898 27.6831 122.977C27.4975 123.057 27.3533 123.165 27.2505 123.3C27.1478 123.433 27.0964 123.599 27.0964 123.798C27.0964 124.086 27.2008 124.306 27.4096 124.459C27.6217 124.608 27.8902 124.683 28.215 124.683Z" fill="black"/>
<path d="M33.552 126V118.364H35.6699V126H33.552ZM34.6159 117.379C34.3011 117.379 34.031 117.275 33.8056 117.066C33.5835 116.854 33.4725 116.6 33.4725 116.305C33.4725 116.014 33.5835 115.763 33.8056 115.555C34.031 115.343 34.3011 115.237 34.6159 115.237C34.9308 115.237 35.1993 115.343 35.4213 115.555C35.6467 115.763 35.7594 116.014 35.7594 116.305C35.7594 116.6 35.6467 116.854 35.4213 117.066C35.1993 117.275 34.9308 117.379 34.6159 117.379Z" fill="black"/>
<path d="M43.7202 120.541L41.7812 120.661C41.7481 120.495 41.6768 120.346 41.5675 120.213C41.4581 120.077 41.3139 119.969 41.1349 119.89C40.9593 119.807 40.7488 119.766 40.5036 119.766C40.1754 119.766 39.8987 119.835 39.6733 119.974C39.4479 120.11 39.3352 120.293 39.3352 120.521C39.3352 120.704 39.4081 120.858 39.554 120.984C39.6998 121.11 39.95 121.211 40.3047 121.287L41.6868 121.565C42.4292 121.718 42.9827 121.963 43.3473 122.301C43.7119 122.639 43.8942 123.083 43.8942 123.634C43.8942 124.134 43.7467 124.573 43.4517 124.951C43.16 125.329 42.759 125.624 42.2486 125.836C41.7415 126.045 41.1565 126.149 40.4936 126.149C39.4827 126.149 38.6773 125.939 38.0774 125.518C37.4808 125.094 37.1312 124.517 37.0284 123.788L39.1115 123.678C39.1745 123.987 39.3269 124.222 39.5689 124.384C39.8108 124.543 40.1207 124.623 40.4986 124.623C40.8698 124.623 41.1681 124.552 41.3935 124.409C41.6222 124.263 41.7382 124.076 41.7415 123.847C41.7382 123.655 41.657 123.498 41.4979 123.375C41.3388 123.249 41.0935 123.153 40.7621 123.087L39.4396 122.823C38.6939 122.674 38.1387 122.415 37.7741 122.048C37.4129 121.68 37.2322 121.211 37.2322 120.641C37.2322 120.15 37.3648 119.728 37.63 119.373C37.8984 119.018 38.2746 118.745 38.7585 118.553C39.2457 118.36 39.8158 118.264 40.4688 118.264C41.4332 118.264 42.1922 118.468 42.7457 118.876C43.3026 119.283 43.6274 119.839 43.7202 120.541Z" fill="black"/>
<path d="M48.6781 126.149C47.9058 126.149 47.238 125.985 46.6745 125.657C46.1144 125.326 45.6819 124.865 45.377 124.275C45.072 123.682 44.9196 122.994 44.9196 122.212C44.9196 121.423 45.072 120.733 45.377 120.143C45.6819 119.55 46.1144 119.089 46.6745 118.761C47.238 118.43 47.9058 118.264 48.6781 118.264C49.4503 118.264 50.1165 118.43 50.6767 118.761C51.2401 119.089 51.6743 119.55 51.9792 120.143C52.2841 120.733 52.4366 121.423 52.4366 122.212C52.4366 122.994 52.2841 123.682 51.9792 124.275C51.6743 124.865 51.2401 125.326 50.6767 125.657C50.1165 125.985 49.4503 126.149 48.6781 126.149ZM48.688 124.509C49.0394 124.509 49.3327 124.409 49.568 124.21C49.8033 124.008 49.9806 123.733 50.1 123.385C50.2226 123.037 50.2839 122.641 50.2839 122.197C50.2839 121.753 50.2226 121.357 50.1 121.009C49.9806 120.661 49.8033 120.385 49.568 120.183C49.3327 119.981 49.0394 119.88 48.688 119.88C48.3334 119.88 48.0351 119.981 47.7931 120.183C47.5545 120.385 47.3739 120.661 47.2512 121.009C47.1319 121.357 47.0723 121.753 47.0723 122.197C47.0723 122.641 47.1319 123.037 47.2512 123.385C47.3739 123.733 47.5545 124.008 47.7931 124.21C48.0351 124.409 48.3334 124.509 48.688 124.509Z" fill="black"/>
<path d="M55.9316 121.585V126H53.8137V118.364H55.8322V119.711H55.9217C56.0907 119.267 56.3741 118.915 56.7718 118.657C57.1696 118.395 57.6518 118.264 58.2186 118.264C58.7489 118.264 59.2112 118.38 59.6056 118.612C60.0001 118.844 60.3066 119.176 60.5254 119.607C60.7441 120.034 60.8535 120.545 60.8535 121.138V126H58.7356V121.516C58.7389 121.048 58.6196 120.684 58.3777 120.422C58.1357 120.157 57.8026 120.024 57.3784 120.024C57.0933 120.024 56.8414 120.085 56.6227 120.208C56.4073 120.331 56.2382 120.51 56.1156 120.745C55.9963 120.977 55.935 121.257 55.9316 121.585Z" fill="black"/>
<path d="M65.8027 126V115.818H69.8198C70.5887 115.818 71.245 115.956 71.7885 116.231C72.3354 116.503 72.7514 116.889 73.0364 117.389C73.3248 117.886 73.4689 118.471 73.4689 119.144C73.4689 119.82 73.3231 120.402 73.0314 120.889C72.7398 121.373 72.3172 121.744 71.7637 122.003C71.2135 122.261 70.5473 122.391 69.7651 122.391H67.0755V120.661H69.4171C69.8281 120.661 70.1694 120.604 70.4412 120.491C70.713 120.379 70.9152 120.21 71.0478 119.984C71.1836 119.759 71.2516 119.479 71.2516 119.144C71.2516 118.806 71.1836 118.521 71.0478 118.289C70.9152 118.057 70.7113 117.881 70.4363 117.762C70.1645 117.639 69.8214 117.578 69.4071 117.578H67.9554V126H65.8027ZM71.3013 121.366L73.8319 126H71.4554L68.9796 121.366H71.3013Z" fill="black"/>
<path d="M77.128 126.144C76.6408 126.144 76.2066 126.06 75.8255 125.891C75.4443 125.718 75.1427 125.465 74.9206 125.13C74.7019 124.792 74.5925 124.371 74.5925 123.867C74.5925 123.443 74.6704 123.087 74.8262 122.798C74.9819 122.51 75.1941 122.278 75.4625 122.102C75.731 121.927 76.0359 121.794 76.3773 121.705C76.722 121.615 77.0833 121.552 77.4611 121.516C77.9052 121.469 78.2632 121.426 78.535 121.386C78.8068 121.343 79.004 121.28 79.1266 121.197C79.2492 121.115 79.3105 120.992 79.3105 120.83V120.8C79.3105 120.485 79.2111 120.241 79.0123 120.069C78.8167 119.897 78.5383 119.81 78.177 119.81C77.7959 119.81 77.4926 119.895 77.2672 120.064C77.0418 120.23 76.8927 120.438 76.8198 120.69L74.861 120.531C74.9604 120.067 75.156 119.666 75.4476 119.328C75.7393 118.987 76.1155 118.725 76.5762 118.543C77.0402 118.357 77.5771 118.264 78.187 118.264C78.6112 118.264 79.0172 118.314 79.405 118.413C79.7961 118.513 80.1425 118.667 80.4441 118.876C80.749 119.085 80.9893 119.353 81.1649 119.681C81.3406 120.006 81.4284 120.395 81.4284 120.849V126H79.4199V124.941H79.3603C79.2376 125.18 79.0736 125.39 78.8681 125.572C78.6626 125.751 78.4157 125.892 78.1273 125.995C77.839 126.094 77.5059 126.144 77.128 126.144ZM77.7346 124.683C78.0461 124.683 78.3212 124.621 78.5598 124.499C78.7985 124.373 78.9857 124.204 79.1216 123.991C79.2575 123.779 79.3255 123.539 79.3255 123.271V122.46C79.2592 122.503 79.168 122.543 79.052 122.58C78.9393 122.613 78.8117 122.644 78.6692 122.674C78.5267 122.701 78.3842 122.725 78.2417 122.749C78.0991 122.768 77.9699 122.787 77.8539 122.803C77.6053 122.84 77.3882 122.898 77.2026 122.977C77.017 123.057 76.8728 123.165 76.7701 123.3C76.6673 123.433 76.6159 123.599 76.6159 123.798C76.6159 124.086 76.7203 124.306 76.9292 124.459C77.1413 124.608 77.4097 124.683 77.7346 124.683Z" fill="black"/>
<path d="M83.0716 128.864V118.364H85.1596V119.646H85.2541C85.3469 119.441 85.4811 119.232 85.6568 119.02C85.8358 118.804 86.0678 118.625 86.3528 118.483C86.6412 118.337 86.9991 118.264 87.4267 118.264C87.9835 118.264 88.4972 118.41 88.9679 118.702C89.4385 118.99 89.8147 119.426 90.0964 120.009C90.3781 120.589 90.519 121.317 90.519 122.192C90.519 123.044 90.3814 123.763 90.1064 124.349C89.8346 124.933 89.4634 125.375 88.9927 125.677C88.5254 125.975 88.0017 126.124 87.4217 126.124C87.0107 126.124 86.661 126.056 86.3727 125.92C86.0877 125.785 85.854 125.614 85.6717 125.408C85.4894 125.2 85.3502 124.989 85.2541 124.777H85.1895V128.864H83.0716ZM85.1447 122.182C85.1447 122.636 85.2077 123.032 85.3336 123.37C85.4596 123.708 85.6419 123.972 85.8805 124.161C86.1191 124.346 86.4091 124.439 86.7505 124.439C87.0952 124.439 87.3869 124.344 87.6255 124.156C87.8642 123.963 88.0448 123.698 88.1674 123.36C88.2934 123.019 88.3564 122.626 88.3564 122.182C88.3564 121.741 88.295 121.353 88.1724 121.018C88.0498 120.684 87.8691 120.422 87.6305 120.233C87.3919 120.044 87.0985 119.95 86.7505 119.95C86.4058 119.95 86.1142 120.041 85.8755 120.223C85.6402 120.405 85.4596 120.664 85.3336 120.999C85.2077 121.333 85.1447 121.728 85.1447 122.182Z" fill="black"/>
<path d="M91.9309 126V118.364H94.0488V126H91.9309ZM92.9949 117.379C92.68 117.379 92.4099 117.275 92.1845 117.066C91.9624 116.854 91.8514 116.6 91.8514 116.305C91.8514 116.014 91.9624 115.763 92.1845 115.555C92.4099 115.343 92.68 115.237 92.9949 115.237C93.3097 115.237 93.5782 115.343 93.8002 115.555C94.0256 115.763 94.1383 116.014 94.1383 116.305C94.1383 116.6 94.0256 116.854 93.8002 117.066C93.5782 117.275 93.3097 117.379 92.9949 117.379Z" fill="black"/>
<path d="M98.5593 126.124C97.9793 126.124 97.4539 125.975 96.9833 125.677C96.516 125.375 96.1448 124.933 95.8697 124.349C95.5979 123.763 95.462 123.044 95.462 122.192C95.462 121.317 95.6029 120.589 95.8846 120.009C96.1663 119.426 96.5408 118.99 97.0082 118.702C97.4788 118.41 97.9942 118.264 98.5543 118.264C98.9819 118.264 99.3382 118.337 99.6232 118.483C99.9116 118.625 100.144 118.804 100.319 119.02C100.498 119.232 100.634 119.441 100.727 119.646H100.792V115.818H102.904V126H100.816V124.777H100.727C100.627 124.989 100.487 125.2 100.304 125.408C100.125 125.614 99.8917 125.785 99.6033 125.92C99.3183 126.056 98.9703 126.124 98.5593 126.124ZM99.2305 124.439C99.5719 124.439 99.8602 124.346 100.096 124.161C100.334 123.972 100.516 123.708 100.642 123.37C100.772 123.032 100.836 122.636 100.836 122.182C100.836 121.728 100.773 121.333 100.647 120.999C100.521 120.664 100.339 120.405 100.1 120.223C99.8619 120.041 99.5719 119.95 99.2305 119.95C98.8825 119.95 98.5891 120.044 98.3505 120.233C98.1119 120.422 97.9312 120.684 97.8086 121.018C97.686 121.353 97.6246 121.741 97.6246 122.182C97.6246 122.626 97.686 123.019 97.8086 123.36C97.9345 123.698 98.1152 123.963 98.3505 124.156C98.5891 124.344 98.8825 124.439 99.2305 124.439Z" fill="black"/>
<path d="M108.126 126.149C107.34 126.149 106.664 125.99 106.097 125.672C105.534 125.35 105.1 124.896 104.795 124.31C104.49 123.72 104.338 123.022 104.338 122.217C104.338 121.431 104.49 120.742 104.795 120.148C105.1 119.555 105.529 119.093 106.083 118.761C106.639 118.43 107.292 118.264 108.041 118.264C108.545 118.264 109.014 118.345 109.448 118.508C109.886 118.667 110.267 118.907 110.592 119.229C110.92 119.55 111.175 119.955 111.357 120.442C111.54 120.926 111.631 121.492 111.631 122.142V122.724H105.183V121.411H109.637C109.637 121.106 109.571 120.836 109.438 120.601C109.306 120.366 109.122 120.182 108.887 120.049C108.655 119.913 108.384 119.845 108.076 119.845C107.755 119.845 107.47 119.92 107.221 120.069C106.976 120.215 106.784 120.412 106.644 120.661C106.505 120.906 106.434 121.179 106.431 121.481V122.729C106.431 123.107 106.5 123.433 106.639 123.708C106.782 123.983 106.982 124.195 107.241 124.344C107.499 124.494 107.806 124.568 108.161 124.568C108.396 124.568 108.611 124.535 108.807 124.469C109.003 124.402 109.17 124.303 109.309 124.17C109.448 124.038 109.554 123.875 109.627 123.683L111.586 123.812C111.487 124.283 111.283 124.694 110.975 125.045C110.67 125.393 110.275 125.665 109.791 125.861C109.311 126.053 108.756 126.149 108.126 126.149Z" fill="black"/>
</svg>
