<svg width="160" height="125" viewBox="0 0 160 125" fill="none" xmlns="http://www.w3.org/2000/svg">
<g clip-path="url(#clip0_77_198)">
<path fill-rule="evenodd" clip-rule="evenodd" d="M77.1051 1.22218L72.9266 4.71858L68.3444 2.08511L64.9284 6.32953L59.9203 4.64044L57.398 9.46965L52.1567 8.79022L50.6251 14.0187L45.3517 14.3747L44.8697 19.8016L39.7671 21.1797L40.3529 26.5964L35.6175 28.9433L37.2487 34.1416L33.0621 37.3673L35.6762 42.1476L32.1992 46.128L35.6956 50.3063L33.0621 54.8887L37.3062 58.3047L35.6175 63.3128L40.4465 65.8349L39.7671 71.0762L44.9956 72.6081L45.3517 77.8812L50.7786 78.3634L52.1567 83.4658L57.5734 82.88L59.9203 87.6154L65.1187 85.9842L68.3444 90.1709L73.1244 87.5567L77.1051 91.0337L81.2834 87.5375L85.8658 90.1709L89.2815 85.9267L94.2896 87.6154L96.812 82.7864L102.053 83.4658L103.585 78.2373L108.858 77.8812L109.34 72.4543L114.443 71.0762L113.857 65.6597L118.592 63.3128L116.961 58.1142L121.148 54.8887L118.534 50.1085L122.011 46.128L118.514 41.9496L121.148 37.3673L116.904 33.9514L118.592 28.9433L113.763 26.4209L114.443 21.1797L109.214 19.6481L108.858 14.3747L103.431 13.8926L102.053 8.79022L96.6367 9.376L94.2896 4.64044L89.0913 6.27166L85.8658 2.08511L81.0855 4.69913L77.1051 1.22218Z" fill="#7474BA"/>
<path d="M77.0725 9.0644C56.8437 9.08055 40.3969 25.5524 40.4126 45.7884C40.4301 66.0165 56.9042 82.4652 77.1356 82.4451C97.3678 82.4301 113.812 65.9563 113.795 45.7246C113.777 25.4944 97.3057 9.04824 77.0725 9.0644Z" fill="white"/>
<path fill-rule="evenodd" clip-rule="evenodd" d="M77.1318 79.4024C95.7152 79.3868 110.77 64.3111 110.751 45.7249C110.738 27.1444 95.6581 12.0909 77.0789 12.1069C58.4923 12.1176 43.44 27.1985 43.4573 45.782C43.466 56.4159 48.4059 65.8933 56.1109 72.0529C61.8728 76.6592 69.1808 79.4095 77.1318 79.4024Z" fill="url(#paint0_linear_77_198)"/>
<path fill-rule="evenodd" clip-rule="evenodd" d="M89.9638 65.3512V58.0313H95.346C97.3498 58.0313 99.0004 56.381 99.0004 54.377V32.8458C99.0004 30.8416 97.3498 29.1912 95.346 29.1912H58.8655C56.8615 29.1912 55.2112 30.8418 55.2112 32.8458V54.377C55.2112 56.381 56.8615 58.0313 58.8655 58.0313H79.7706L89.9638 65.3512ZM78.8104 61.0146H58.8655C55.2147 61.0146 52.2275 58.0277 52.2275 54.3768V32.8458C52.2275 29.1947 55.2147 26.2078 58.8655 26.2078H95.346C98.9971 26.2078 101.984 29.1947 101.984 32.8458V54.377C101.984 58.0278 98.9971 61.0148 95.346 61.0148H92.9473V71.167L78.8104 61.0146Z" fill="#2E2F68"/>
<path d="M62.7751 52.0244C62.0807 52.0244 61.409 51.9263 60.7599 51.7301C60.1108 51.534 59.4995 51.2545 58.9259 50.8924H58.9487C58.5409 50.6357 58.1789 50.3565 57.8618 50.0547C57.5448 49.7527 57.326 49.5339 57.2053 49.3982L59.56 47.2246C59.6657 47.3603 59.8355 47.5227 60.0694 47.7113C60.3034 47.8999 60.5713 48.0811 60.8732 48.2547C61.1751 48.4283 61.4921 48.5754 61.8242 48.6962C62.1564 48.8169 62.4733 48.8774 62.7753 48.8774C63.0318 48.8774 63.2884 48.8472 63.5451 48.7869C63.8016 48.7265 64.0357 48.6322 64.2469 48.5038C64.4583 48.3755 64.6319 48.2056 64.7678 47.9944C64.9034 47.783 64.9714 47.5189 64.9714 47.2018C64.9714 47.0811 64.9298 46.9489 64.8469 46.8056C64.7638 46.6624 64.6204 46.5074 64.4167 46.3415C64.213 46.1755 63.9299 45.9981 63.5678 45.8093C63.2054 45.6206 62.7527 45.4207 62.2093 45.2094C61.5752 44.9678 60.9866 44.7075 60.4432 44.4282C59.8998 44.1491 59.4281 43.8207 59.0281 43.4433C58.6282 43.0659 58.3187 42.6359 58.0997 42.1528C57.881 41.6698 57.7717 41.1114 57.7717 40.4774C57.7717 39.8282 57.8922 39.2208 58.1339 38.6546C58.3754 38.0885 58.7187 37.598 59.164 37.1828C59.6093 36.7677 60.1451 36.4434 60.7715 36.2094C61.398 35.9753 62.0884 35.8584 62.8432 35.8584C63.2506 35.8584 63.6847 35.9112 64.145 36.0169C64.6054 36.1226 65.0545 36.2584 65.492 36.4244C65.9298 36.5906 66.3411 36.783 66.7259 37.002C67.1109 37.2208 67.4317 37.4435 67.6883 37.6699L65.7411 40.115C65.4543 39.9189 65.16 39.7378 64.8581 39.5716C64.6014 39.4358 64.3071 39.3075 63.9752 39.1868C63.643 39.0661 63.3035 39.0055 62.9562 39.0055C62.3222 39.0055 61.8279 39.1301 61.4733 39.3792C61.1185 39.6284 60.9411 39.9868 60.9411 40.4547C60.9411 40.6659 61.0052 40.8583 61.1335 41.0319C61.2618 41.2057 61.4354 41.3641 61.6542 41.5075C61.8731 41.6508 62.1259 41.7829 62.4129 41.9037C62.6996 42.0244 63.0015 42.1377 63.3185 42.2434C64.2242 42.5904 64.9864 42.9414 65.6053 43.2962C66.2242 43.651 66.7221 44.0282 67.0995 44.4282C67.4767 44.8284 67.7448 45.2585 67.9032 45.7188C68.0617 46.1791 68.141 46.681 68.141 47.2246C68.141 47.8885 68.0051 48.515 67.7333 49.1036C67.4617 49.6924 67.088 50.2018 66.6126 50.6321C66.137 51.0621 65.5712 51.4019 64.9145 51.651C64.258 51.8998 63.5449 52.0244 62.7751 52.0244Z" fill="#2E2F68"/>
<path d="M76.9486 35.8584L84.0809 51.866H80.6166L79.326 48.9679H73.2809C73.0847 49.4206 72.8695 49.9075 72.6356 50.4282C72.4016 50.9488 72.1941 51.4281 72.0129 51.866H68.5715L75.613 35.8584H76.9486ZM77.9223 45.8207L76.2919 42.1528L74.6618 45.8207H77.9223Z" fill="#2E2F68"/>
<path d="M88.9711 52.0244L81.8391 36.0169H85.2806L89.605 45.7074C90.3144 44.0922 91.0277 42.4735 91.7447 40.8509C92.4617 39.2282 93.1825 37.6169 93.9068 36.0169H97.3484L90.2843 52.0244H88.9711Z" fill="#2E2F68"/>
</g>
<path d="M6.40838 114.746C6.36861 114.345 6.19792 114.034 5.89631 113.812C5.5947 113.59 5.18537 113.479 4.66832 113.479C4.317 113.479 4.02036 113.528 3.77841 113.628C3.53646 113.724 3.35085 113.858 3.22159 114.031C3.09564 114.203 3.03267 114.398 3.03267 114.617C3.02604 114.799 3.06416 114.959 3.14702 115.094C3.23319 115.23 3.35085 115.348 3.5 115.447C3.64915 115.544 3.8215 115.628 4.01705 115.701C4.21259 115.771 4.4214 115.83 4.64347 115.88L5.55824 116.099C6.00237 116.198 6.41004 116.331 6.78125 116.496C7.15246 116.662 7.47396 116.866 7.74574 117.108C8.01752 117.35 8.22798 117.635 8.37713 117.963C8.52959 118.291 8.60748 118.667 8.6108 119.092C8.60748 119.715 8.44839 120.255 8.13352 120.712C7.82197 121.166 7.37121 121.519 6.78125 121.771C6.1946 122.02 5.48698 122.144 4.65838 122.144C3.83641 122.144 3.1205 122.018 2.51065 121.766C1.90412 121.514 1.43016 121.142 1.08878 120.648C0.75071 120.151 0.57339 119.536 0.556818 118.803H2.63991C2.66312 119.145 2.76089 119.43 2.93324 119.658C3.1089 119.884 3.34257 120.054 3.63423 120.17C3.92921 120.283 4.26231 120.339 4.63352 120.339C4.99811 120.339 5.31463 120.286 5.5831 120.18C5.85488 120.074 6.06534 119.927 6.21449 119.738C6.36364 119.549 6.43821 119.332 6.43821 119.087C6.43821 118.858 6.37027 118.666 6.23438 118.51C6.1018 118.354 5.90625 118.222 5.64773 118.112C5.39252 118.003 5.07931 117.903 4.7081 117.814L3.59943 117.536C2.741 117.327 2.06321 117 1.56605 116.556C1.06889 116.112 0.82197 115.514 0.825284 114.761C0.82197 114.145 0.986032 113.606 1.31747 113.146C1.65223 112.685 2.11127 112.325 2.6946 112.067C3.27794 111.808 3.94081 111.679 4.68324 111.679C5.43892 111.679 6.09849 111.808 6.66193 112.067C7.22869 112.325 7.66951 112.685 7.98438 113.146C8.29924 113.606 8.46165 114.14 8.47159 114.746H6.40838ZM12.1966 122.144C11.7093 122.144 11.2752 122.06 10.894 121.891C10.5128 121.718 10.2112 121.465 9.98917 121.13C9.77042 120.792 9.66104 120.371 9.66104 119.867C9.66104 119.443 9.73893 119.087 9.89471 118.798C10.0505 118.51 10.2626 118.278 10.5311 118.102C10.7995 117.927 11.1045 117.794 11.4458 117.705C11.7905 117.615 12.1518 117.552 12.5297 117.516C12.9738 117.469 13.3317 117.426 13.6035 117.386C13.8753 117.343 14.0725 117.28 14.1951 117.197C14.3178 117.115 14.3791 116.992 14.3791 116.83V116.8C14.3791 116.485 14.2797 116.241 14.0808 116.069C13.8852 115.897 13.6068 115.81 13.2456 115.81C12.8644 115.81 12.5611 115.895 12.3358 116.064C12.1104 116.23 11.9612 116.438 11.8883 116.69L9.92951 116.531C10.0289 116.067 10.2245 115.666 10.5162 115.328C10.8078 114.987 11.184 114.725 11.6447 114.543C12.1087 114.357 12.6457 114.264 13.2555 114.264C13.6797 114.264 14.0858 114.314 14.4735 114.413C14.8646 114.513 15.211 114.667 15.5126 114.876C15.8175 115.085 16.0578 115.353 16.2335 115.681C16.4092 116.006 16.497 116.395 16.497 116.849V122H14.4885V120.941H14.4288C14.3062 121.18 14.1421 121.39 13.9366 121.572C13.7311 121.751 13.4842 121.892 13.1958 121.995C12.9075 122.094 12.5744 122.144 12.1966 122.144ZM12.8031 120.683C13.1146 120.683 13.3897 120.621 13.6284 120.499C13.867 120.373 14.0543 120.204 14.1902 119.991C14.3261 119.779 14.394 119.539 14.394 119.271V118.46C14.3277 118.503 14.2366 118.543 14.1206 118.58C14.0079 118.613 13.8803 118.644 13.7377 118.674C13.5952 118.701 13.4527 118.725 13.3102 118.749C13.1677 118.768 13.0384 118.787 12.9224 118.803C12.6738 118.84 12.4567 118.898 12.2711 118.977C12.0855 119.057 11.9413 119.165 11.8386 119.3C11.7359 119.433 11.6845 119.599 11.6845 119.798C11.6845 120.086 11.7889 120.306 11.9977 120.459C12.2098 120.608 12.4783 120.683 12.8031 120.683ZM22.2019 114.364V115.955H17.6032V114.364H22.2019ZM18.6472 112.534H20.7651V119.653C20.7651 119.849 20.7949 120.001 20.8546 120.111C20.9142 120.217 20.9971 120.291 21.1032 120.335C21.2125 120.378 21.3385 120.399 21.481 120.399C21.5804 120.399 21.6799 120.391 21.7793 120.374C21.8787 120.354 21.955 120.339 22.008 120.33L22.3411 121.906C22.235 121.939 22.0859 121.977 21.8936 122.02C21.7014 122.066 21.4677 122.094 21.1926 122.104C20.6822 122.124 20.2348 122.056 19.8503 121.901C19.4692 121.745 19.1725 121.503 18.9604 121.175C18.7483 120.847 18.6439 120.432 18.6472 119.932V112.534ZM23.5815 122V114.364H25.6994V122H23.5815ZM24.6454 113.379C24.3306 113.379 24.0604 113.275 23.835 113.066C23.613 112.854 23.502 112.6 23.502 112.305C23.502 112.014 23.613 111.763 23.835 111.555C24.0604 111.343 24.3306 111.237 24.6454 111.237C24.9603 111.237 25.2288 111.343 25.4508 111.555C25.6762 111.763 25.7889 112.014 25.7889 112.305C25.7889 112.6 25.6762 112.854 25.4508 113.066C25.2288 113.275 24.9603 113.379 24.6454 113.379ZM33.7496 116.541L31.8107 116.661C31.7776 116.495 31.7063 116.346 31.5969 116.213C31.4876 116.077 31.3434 115.969 31.1644 115.89C30.9888 115.807 30.7783 115.766 30.533 115.766C30.2049 115.766 29.9281 115.835 29.7028 115.974C29.4774 116.11 29.3647 116.293 29.3647 116.521C29.3647 116.704 29.4376 116.858 29.5835 116.984C29.7293 117.11 29.9795 117.211 30.3342 117.287L31.7163 117.565C32.4587 117.718 33.0122 117.963 33.3768 118.301C33.7414 118.639 33.9237 119.083 33.9237 119.634C33.9237 120.134 33.7762 120.573 33.4812 120.951C33.1895 121.329 32.7885 121.624 32.2781 121.836C31.771 122.045 31.186 122.149 30.5231 122.149C29.5122 122.149 28.7068 121.939 28.1069 121.518C27.5103 121.094 27.1606 120.517 27.0579 119.788L29.141 119.678C29.204 119.987 29.3564 120.222 29.5984 120.384C29.8403 120.543 30.1502 120.623 30.5281 120.623C30.8993 120.623 31.1976 120.552 31.4229 120.409C31.6516 120.263 31.7676 120.076 31.771 119.847C31.7676 119.655 31.6864 119.498 31.5273 119.375C31.3683 119.249 31.123 119.153 30.7915 119.087L29.4691 118.823C28.7234 118.674 28.1682 118.415 27.8036 118.048C27.4424 117.68 27.2617 117.211 27.2617 116.641C27.2617 116.15 27.3943 115.728 27.6594 115.373C27.9279 115.018 28.3041 114.745 28.788 114.553C29.2752 114.36 29.8453 114.264 30.4982 114.264C31.4627 114.264 32.2217 114.468 32.7752 114.876C33.332 115.283 33.6568 115.839 33.7496 116.541ZM39.3638 114.364V115.955H34.6507V114.364H39.3638ZM35.7296 122V113.812C35.7296 113.258 35.8373 112.799 36.0527 112.435C36.2715 112.07 36.5698 111.797 36.9476 111.614C37.3255 111.432 37.7547 111.341 38.2353 111.341C38.5601 111.341 38.8567 111.366 39.1252 111.415C39.397 111.465 39.5991 111.51 39.7317 111.55L39.3539 113.141C39.271 113.114 39.1683 113.089 39.0456 113.066C38.9263 113.043 38.8037 113.031 38.6777 113.031C38.3662 113.031 38.1491 113.104 38.0265 113.25C37.9038 113.393 37.8425 113.593 37.8425 113.852V122H35.7296ZM42.5618 122.144C42.0746 122.144 41.6404 122.06 41.2592 121.891C40.8781 121.718 40.5765 121.465 40.3544 121.13C40.1357 120.792 40.0263 120.371 40.0263 119.867C40.0263 119.443 40.1042 119.087 40.2599 118.798C40.4157 118.51 40.6278 118.278 40.8963 118.102C41.1648 117.927 41.4697 117.794 41.8111 117.705C42.1558 117.615 42.517 117.552 42.8949 117.516C43.339 117.469 43.697 117.426 43.9688 117.386C44.2405 117.343 44.4377 117.28 44.5604 117.197C44.683 117.115 44.7443 116.992 44.7443 116.83V116.8C44.7443 116.485 44.6449 116.241 44.446 116.069C44.2505 115.897 43.9721 115.81 43.6108 115.81C43.2296 115.81 42.9264 115.895 42.701 116.064C42.4756 116.23 42.3265 116.438 42.2536 116.69L40.2947 116.531C40.3942 116.067 40.5897 115.666 40.8814 115.328C41.1731 114.987 41.5492 114.725 42.0099 114.543C42.474 114.357 43.0109 114.264 43.6207 114.264C44.045 114.264 44.451 114.314 44.8388 114.413C45.2299 114.513 45.5762 114.667 45.8778 114.876C46.1828 115.085 46.4231 115.353 46.5987 115.681C46.7744 116.006 46.8622 116.395 46.8622 116.849V122H44.8537V120.941H44.794C44.6714 121.18 44.5073 121.39 44.3018 121.572C44.0964 121.751 43.8494 121.892 43.5611 121.995C43.2727 122.094 42.9396 122.144 42.5618 122.144ZM43.1683 120.683C43.4799 120.683 43.755 120.621 43.9936 120.499C44.2322 120.373 44.4195 120.204 44.5554 119.991C44.6913 119.779 44.7592 119.539 44.7592 119.271V118.46C44.6929 118.503 44.6018 118.543 44.4858 118.58C44.3731 118.613 44.2455 118.644 44.103 118.674C43.9605 118.701 43.8179 118.725 43.6754 118.749C43.5329 118.768 43.4036 118.787 43.2876 118.803C43.0391 118.84 42.822 118.898 42.6364 118.977C42.4508 119.057 42.3066 119.165 42.2038 119.3C42.1011 119.433 42.0497 119.599 42.0497 119.798C42.0497 120.086 42.1541 120.306 42.3629 120.459C42.575 120.608 42.8435 120.683 43.1683 120.683ZM48.5053 122V114.364H50.6232V122H48.5053ZM49.5692 113.379C49.2544 113.379 48.9843 113.275 48.7589 113.066C48.5368 112.854 48.4258 112.6 48.4258 112.305C48.4258 112.014 48.5368 111.763 48.7589 111.555C48.9843 111.343 49.2544 111.237 49.5692 111.237C49.8841 111.237 50.1526 111.343 50.3746 111.555C50.6 111.763 50.7127 112.014 50.7127 112.305C50.7127 112.6 50.6 112.854 50.3746 113.066C50.1526 113.275 49.8841 113.379 49.5692 113.379ZM56.3816 114.364V115.955H51.7828V114.364H56.3816ZM52.8269 112.534H54.9448V119.653C54.9448 119.849 54.9746 120.001 55.0343 120.111C55.0939 120.217 55.1768 120.291 55.2828 120.335C55.3922 120.378 55.5182 120.399 55.6607 120.399C55.7601 120.399 55.8596 120.391 55.959 120.374C56.0584 120.354 56.1346 120.339 56.1877 120.33L56.5208 121.906C56.4147 121.939 56.2656 121.977 56.0733 122.02C55.8811 122.066 55.6474 122.094 55.3723 122.104C54.8619 122.124 54.4145 122.056 54.03 121.901C53.6489 121.745 53.3522 121.503 53.1401 121.175C52.928 120.847 52.8236 120.432 52.8269 119.932V112.534ZM64.4517 122.149C63.6795 122.149 63.0116 121.985 62.4482 121.657C61.888 121.326 61.4555 120.865 61.1506 120.275C60.8456 119.682 60.6932 118.994 60.6932 118.212C60.6932 117.423 60.8456 116.733 61.1506 116.143C61.4555 115.55 61.888 115.089 62.4482 114.761C63.0116 114.43 63.6795 114.264 64.4517 114.264C65.224 114.264 65.8902 114.43 66.4503 114.761C67.0137 115.089 67.4479 115.55 67.7528 116.143C68.0578 116.733 68.2102 117.423 68.2102 118.212C68.2102 118.994 68.0578 119.682 67.7528 120.275C67.4479 120.865 67.0137 121.326 66.4503 121.657C65.8902 121.985 65.224 122.149 64.4517 122.149ZM64.4616 120.509C64.813 120.509 65.1063 120.409 65.3416 120.21C65.5769 120.008 65.7543 119.733 65.8736 119.385C65.9962 119.037 66.0575 118.641 66.0575 118.197C66.0575 117.753 65.9962 117.357 65.8736 117.009C65.7543 116.661 65.5769 116.385 65.3416 116.183C65.1063 115.981 64.813 115.88 64.4616 115.88C64.107 115.88 63.8087 115.981 63.5668 116.183C63.3281 116.385 63.1475 116.661 63.0249 117.009C62.9055 117.357 62.8459 117.753 62.8459 118.197C62.8459 118.641 62.9055 119.037 63.0249 119.385C63.1475 119.733 63.3281 120.008 63.5668 120.21C63.8087 120.409 64.107 120.509 64.4616 120.509ZM74.4844 118.749V114.364H76.6023V122H74.5689V120.613H74.4893C74.317 121.06 74.0303 121.42 73.6293 121.692C73.2315 121.964 72.746 122.099 72.1726 122.099C71.6622 122.099 71.2131 121.983 70.8253 121.751C70.4375 121.519 70.1342 121.19 69.9155 120.762C69.7 120.335 69.5907 119.822 69.5874 119.226V114.364H71.7053V118.848C71.7086 119.299 71.8295 119.655 72.0682 119.917C72.3068 120.179 72.6267 120.31 73.0277 120.31C73.2829 120.31 73.5215 120.252 73.7436 120.136C73.9657 120.016 74.1446 119.841 74.2805 119.609C74.4197 119.377 74.4877 119.09 74.4844 118.749ZM81.5763 122V111.818H85.5934C86.3623 111.818 87.0186 111.956 87.5621 112.231C88.109 112.503 88.525 112.889 88.81 113.389C89.0984 113.886 89.2425 114.471 89.2425 115.144C89.2425 115.82 89.0967 116.402 88.805 116.889C88.5134 117.373 88.0908 117.744 87.5373 118.003C86.9871 118.261 86.3209 118.391 85.5387 118.391H82.8491V116.661H85.1907C85.6017 116.661 85.9431 116.604 86.2148 116.491C86.4866 116.379 86.6888 116.21 86.8214 115.984C86.9573 115.759 87.0252 115.479 87.0252 115.144C87.0252 114.806 86.9573 114.521 86.8214 114.289C86.6888 114.057 86.485 113.881 86.2099 113.762C85.9381 113.639 85.5951 113.578 85.1808 113.578H83.729V122H81.5763ZM87.0749 117.366L89.6055 122H87.229L84.7532 117.366H87.0749ZM94.0811 122.149C93.2956 122.149 92.6195 121.99 92.0527 121.672C91.4893 121.35 91.0551 120.896 90.7502 120.31C90.4453 119.72 90.2928 119.022 90.2928 118.217C90.2928 117.431 90.4453 116.742 90.7502 116.148C91.0551 115.555 91.4843 115.093 92.0378 114.761C92.5946 114.43 93.2476 114.264 93.9966 114.264C94.5004 114.264 94.9694 114.345 95.4036 114.508C95.8411 114.667 96.2222 114.907 96.5471 115.229C96.8752 115.55 97.1304 115.955 97.3127 116.442C97.495 116.926 97.5861 117.492 97.5861 118.142V118.724H91.138V117.411H95.5925C95.5925 117.106 95.5262 116.836 95.3936 116.601C95.2611 116.366 95.0771 116.182 94.8418 116.049C94.6098 115.913 94.3397 115.845 94.0314 115.845C93.7099 115.845 93.4249 115.92 93.1763 116.069C92.931 116.215 92.7388 116.412 92.5996 116.661C92.4604 116.906 92.3891 117.179 92.3858 117.481V118.729C92.3858 119.107 92.4554 119.433 92.5946 119.708C92.7372 119.983 92.9377 120.195 93.1962 120.344C93.4547 120.494 93.7613 120.568 94.1159 120.568C94.3513 120.568 94.5667 120.535 94.7623 120.469C94.9578 120.402 95.1252 120.303 95.2644 120.17C95.4036 120.038 95.5096 119.875 95.5826 119.683L97.5414 119.812C97.4419 120.283 97.2381 120.694 96.9299 121.045C96.6249 121.393 96.2305 121.665 95.7466 121.861C95.266 122.053 94.7109 122.149 94.0811 122.149ZM98.9682 122V114.364H100.987V115.711H101.076C101.235 115.263 101.5 114.911 101.872 114.652C102.243 114.393 102.687 114.264 103.204 114.264C103.728 114.264 104.173 114.395 104.541 114.657C104.909 114.915 105.155 115.267 105.277 115.711H105.357C105.512 115.273 105.794 114.924 106.202 114.662C106.613 114.397 107.098 114.264 107.659 114.264C108.371 114.264 108.95 114.491 109.394 114.945C109.841 115.396 110.065 116.036 110.065 116.864V122H107.952V117.282C107.952 116.858 107.839 116.54 107.614 116.327C107.388 116.115 107.107 116.009 106.769 116.009C106.384 116.009 106.084 116.132 105.869 116.377C105.653 116.619 105.546 116.939 105.546 117.337V122H103.492V117.237C103.492 116.863 103.385 116.564 103.169 116.342C102.957 116.12 102.677 116.009 102.329 116.009C102.094 116.009 101.882 116.069 101.693 116.188C101.507 116.304 101.36 116.468 101.25 116.68C101.141 116.889 101.086 117.134 101.086 117.416V122H98.9682ZM111.778 122V111.818H113.895V115.646H113.96C114.053 115.441 114.187 115.232 114.363 115.02C114.542 114.804 114.774 114.625 115.059 114.483C115.347 114.337 115.705 114.264 116.133 114.264C116.689 114.264 117.203 114.41 117.674 114.702C118.144 114.99 118.521 115.426 118.802 116.009C119.084 116.589 119.225 117.317 119.225 118.192C119.225 119.044 119.087 119.763 118.812 120.349C118.541 120.933 118.169 121.375 117.699 121.677C117.231 121.975 116.708 122.124 116.128 122.124C115.717 122.124 115.367 122.056 115.079 121.92C114.794 121.785 114.56 121.614 114.378 121.408C114.195 121.2 114.056 120.989 113.96 120.777H113.866V122H111.778ZM113.851 118.182C113.851 118.636 113.914 119.032 114.04 119.37C114.166 119.708 114.348 119.972 114.586 120.161C114.825 120.346 115.115 120.439 115.456 120.439C115.801 120.439 116.093 120.344 116.331 120.156C116.57 119.963 116.751 119.698 116.873 119.36C116.999 119.019 117.062 118.626 117.062 118.182C117.062 117.741 117.001 117.353 116.878 117.018C116.756 116.684 116.575 116.422 116.336 116.233C116.098 116.044 115.805 115.95 115.456 115.95C115.112 115.95 114.82 116.041 114.581 116.223C114.346 116.405 114.166 116.664 114.04 116.999C113.914 117.333 113.851 117.728 113.851 118.182ZM124.088 122.149C123.316 122.149 122.648 121.985 122.085 121.657C121.525 121.326 121.092 120.865 120.787 120.275C120.482 119.682 120.33 118.994 120.33 118.212C120.33 117.423 120.482 116.733 120.787 116.143C121.092 115.55 121.525 115.089 122.085 114.761C122.648 114.43 123.316 114.264 124.088 114.264C124.861 114.264 125.527 114.43 126.087 114.761C126.65 115.089 127.085 115.55 127.39 116.143C127.694 116.733 127.847 117.423 127.847 118.212C127.847 118.994 127.694 119.682 127.39 120.275C127.085 120.865 126.65 121.326 126.087 121.657C125.527 121.985 124.861 122.149 124.088 122.149ZM124.098 120.509C124.45 120.509 124.743 120.409 124.978 120.21C125.214 120.008 125.391 119.733 125.51 119.385C125.633 119.037 125.694 118.641 125.694 118.197C125.694 117.753 125.633 117.357 125.51 117.009C125.391 116.661 125.214 116.385 124.978 116.183C124.743 115.981 124.45 115.88 124.098 115.88C123.744 115.88 123.445 115.981 123.203 116.183C122.965 116.385 122.784 116.661 122.662 117.009C122.542 117.357 122.483 117.753 122.483 118.197C122.483 118.641 122.542 119.037 122.662 119.385C122.784 119.733 122.965 120.008 123.203 120.21C123.445 120.409 123.744 120.509 124.098 120.509ZM134.121 118.749V114.364H136.239V122H134.206V120.613H134.126C133.954 121.06 133.667 121.42 133.266 121.692C132.868 121.964 132.383 122.099 131.809 122.099C131.299 122.099 130.85 121.983 130.462 121.751C130.074 121.519 129.771 121.19 129.552 120.762C129.337 120.335 129.227 119.822 129.224 119.226V114.364H131.342V118.848C131.345 119.299 131.466 119.655 131.705 119.917C131.944 120.179 132.263 120.31 132.664 120.31C132.92 120.31 133.158 120.252 133.38 120.136C133.602 120.016 133.781 119.841 133.917 119.609C134.056 119.377 134.124 119.09 134.121 118.749ZM137.933 122V114.364H139.986V115.696H140.066C140.205 115.222 140.439 114.864 140.767 114.622C141.095 114.377 141.473 114.254 141.9 114.254C142.006 114.254 142.121 114.261 142.243 114.274C142.366 114.287 142.474 114.306 142.567 114.329V116.208C142.467 116.178 142.33 116.152 142.154 116.129C141.978 116.105 141.818 116.094 141.672 116.094C141.36 116.094 141.082 116.162 140.836 116.298C140.595 116.43 140.402 116.616 140.26 116.854C140.121 117.093 140.051 117.368 140.051 117.68V122H137.933ZM150.015 116.541L148.076 116.661C148.043 116.495 147.972 116.346 147.863 116.213C147.753 116.077 147.609 115.969 147.43 115.89C147.254 115.807 147.044 115.766 146.799 115.766C146.471 115.766 146.194 115.835 145.968 115.974C145.743 116.11 145.63 116.293 145.63 116.521C145.63 116.704 145.703 116.858 145.849 116.984C145.995 117.11 146.245 117.211 146.6 117.287L147.982 117.565C148.724 117.718 149.278 117.963 149.642 118.301C150.007 118.639 150.189 119.083 150.189 119.634C150.189 120.134 150.042 120.573 149.747 120.951C149.455 121.329 149.054 121.624 148.544 121.836C148.037 122.045 147.452 122.149 146.789 122.149C145.778 122.149 144.972 121.939 144.373 121.518C143.776 121.094 143.426 120.517 143.324 119.788L145.407 119.678C145.47 119.987 145.622 120.222 145.864 120.384C146.106 120.543 146.416 120.623 146.794 120.623C147.165 120.623 147.463 120.552 147.689 120.409C147.917 120.263 148.033 120.076 148.037 119.847C148.033 119.655 147.952 119.498 147.793 119.375C147.634 119.249 147.389 119.153 147.057 119.087L145.735 118.823C144.989 118.674 144.434 118.415 144.069 118.048C143.708 117.68 143.527 117.211 143.527 116.641C143.527 116.15 143.66 115.728 143.925 115.373C144.194 115.018 144.57 114.745 145.054 114.553C145.541 114.36 146.111 114.264 146.764 114.264C147.728 114.264 148.487 114.468 149.041 114.876C149.598 115.283 149.922 115.839 150.015 116.541ZM155.003 122.149C154.218 122.149 153.541 121.99 152.975 121.672C152.411 121.35 151.977 120.896 151.672 120.31C151.367 119.72 151.215 119.022 151.215 118.217C151.215 117.431 151.367 116.742 151.672 116.148C151.977 115.555 152.406 115.093 152.96 114.761C153.517 114.43 154.169 114.264 154.919 114.264C155.422 114.264 155.891 114.345 156.325 114.508C156.763 114.667 157.144 114.907 157.469 115.229C157.797 115.55 158.052 115.955 158.235 116.442C158.417 116.926 158.508 117.492 158.508 118.142V118.724H152.06V117.411H156.514C156.514 117.106 156.448 116.836 156.316 116.601C156.183 116.366 155.999 116.182 155.764 116.049C155.532 115.913 155.262 115.845 154.953 115.845C154.632 115.845 154.347 115.92 154.098 116.069C153.853 116.215 153.661 116.412 153.521 116.661C153.382 116.906 153.311 117.179 153.308 117.481V118.729C153.308 119.107 153.377 119.433 153.517 119.708C153.659 119.983 153.86 120.195 154.118 120.344C154.377 120.494 154.683 120.568 155.038 120.568C155.273 120.568 155.489 120.535 155.684 120.469C155.88 120.402 156.047 120.303 156.186 120.17C156.325 120.038 156.432 119.875 156.504 119.683L158.463 119.812C158.364 120.283 158.16 120.694 157.852 121.045C157.547 121.393 157.152 121.665 156.669 121.861C156.188 122.053 155.633 122.149 155.003 122.149ZM154.108 113.379L155.162 111.117H157.121L155.605 113.379H154.108Z" fill="black"/>
<defs>
<linearGradient id="paint0_linear_77_198" x1="77.1042" y1="12.107" x2="77.1042" y2="79.4026" gradientUnits="userSpaceOnUse">
<stop stop-color="white"/>
<stop offset="1" stop-color="#DDDCDC"/>
</linearGradient>
<clipPath id="clip0_77_198">
<rect width="92" height="92" fill="white" transform="translate(31)"/>
</clipPath>
</defs>
</svg>
